<svg width="474" height="48" viewBox="0 0 474 48" fill="none" xmlns="http://www.w3.org/2000/svg">
<path d="M18.2386 26.398L23.9982 33.5975M23.9982 33.5975L29.7577 26.398M23.9982 33.5975V14.3989" stroke="#2E8B6A" stroke-width="0.959926" stroke-linecap="round" stroke-linejoin="round"/>
<g opacity="0.75">
<path d="M20.1585 24.958L23.9982 29.7576M23.9982 29.7576L27.8379 24.958M23.9982 29.7576V18.2385" stroke="#2E8B6A" stroke-width="0.959926" stroke-linecap="round" stroke-linejoin="round"/>
</g>
<g opacity="0.5">
<path d="M21.5983 23.9982L23.9982 26.398M23.9982 26.398L26.398 23.9982M23.9982 26.398V21.5984" stroke="#2E8B6A" stroke-width="0.959926" stroke-linecap="round" stroke-linejoin="round"/>
</g>
<g transform="translate(-20, 0)">
<path d="M66.389 35.3511V14.0511H74.639C77.139 14.0511 79.089 14.6511 80.489 15.8511C81.889 17.0511 82.589 18.7111 82.589 20.8311C82.589 22.2511 82.269 23.4811 81.629 24.5211C80.989 25.5411 80.079 26.3211 78.899 26.8611C77.719 27.4011 76.299 27.6711 74.639 27.6711H70.289V35.3511H66.389ZM70.289 24.2811H74.459C75.779 24.2811 76.789 23.9911 77.489 23.4111C78.209 22.8311 78.569 21.9711 78.569 20.8311C78.569 19.7111 78.209 18.8711 77.489 18.3111C76.789 17.7311 75.779 17.4411 74.459 17.4411H70.289V24.2811ZM89.1008 35.3511C87.9408 35.3511 87.0108 35.0511 86.3108 34.4511C85.6108 33.8511 85.2608 32.8911 85.2608 31.5711V14.0511H89.1008V31.1811C89.1008 31.5811 89.2008 31.8811 89.4008 32.0811C89.6208 32.2811 89.9208 32.3811 90.3008 32.3811H91.4708V35.3511H89.1008ZM98.0085 35.7111C96.3285 35.7111 94.9785 35.3311 93.9585 34.5711C92.9385 33.7911 92.4285 32.7111 92.4285 31.3311C92.4285 29.9511 92.8585 28.8711 93.7185 28.0911C94.5785 27.3111 95.8885 26.7511 97.6485 26.4111L102.958 25.3611C102.958 24.2211 102.698 23.3711 102.178 22.8111C101.658 22.2311 100.888 21.9411 99.8685 21.9411C98.9485 21.9411 98.2185 22.1611 97.6785 22.6011C97.1585 23.0211 96.7985 23.6311 96.5985 24.4311L92.6985 24.2511C93.0185 22.5511 93.7985 21.2511 95.0385 20.3511C96.2785 19.4311 97.8885 18.9711 99.8685 18.9711C102.148 18.9711 103.868 19.5511 105.028 20.7111C106.208 21.8511 106.798 23.4911 106.798 25.6311V31.4511C106.798 31.8711 106.868 32.1611 107.009 32.3211C107.169 32.4811 107.399 32.5611 107.699 32.5611H108.208V35.3511C108.088 35.3911 107.888 35.4211 107.608 35.4411C107.348 35.4611 107.078 35.4711 106.798 35.4711C106.138 35.4711 105.548 35.3711 105.028 35.1711C104.508 34.9511 104.109 34.5811 103.829 34.0611C103.549 33.5211 103.409 32.7911 103.409 31.8711L103.738 32.1111C103.578 32.8111 103.228 33.4411 102.688 34.0011C102.168 34.5411 101.508 34.9611 100.708 35.2611C99.9085 35.5611 99.0085 35.7111 98.0085 35.7111ZM98.7885 32.9211C99.6485 32.9211 100.388 32.7511 101.008 32.4111C101.628 32.0711 102.108 31.6011 102.448 31.0011C102.788 30.4011 102.958 29.6911 102.958 28.8711V27.9711L98.8185 28.8111C97.9585 28.9911 97.3385 29.2611 96.9585 29.6211C96.5985 29.9611 96.4185 30.4111 96.4185 30.9711C96.4185 31.5911 96.6185 32.0711 97.0185 32.4111C97.4385 32.7511 98.0285 32.9211 98.7885 32.9211ZM109.952 35.3511V19.3311H113.432L113.582 23.8311L113.132 23.6511C113.292 22.5311 113.622 21.6311 114.122 20.9511C114.622 20.2711 115.232 19.7711 115.952 19.4511C116.672 19.1311 117.462 18.9711 118.322 18.9711C119.502 18.9711 120.492 19.2311 121.292 19.7511C122.112 20.2711 122.732 20.9911 123.152 21.9111C123.572 22.8111 123.782 23.8611 123.782 25.0611V35.3511H119.942V26.2911C119.942 25.3911 119.852 24.6311 119.672 24.0111C119.492 23.3911 119.192 22.9211 118.772 22.6011C118.372 22.2611 117.832 22.0911 117.152 22.0911C116.132 22.0911 115.312 22.4511 114.692 23.1711C114.092 23.8911 113.792 24.9311 113.792 26.2911V35.3511H109.952ZM133.349 35.7111C131.769 35.7111 130.439 35.4811 129.359 35.0211C128.299 34.5611 127.479 33.9211 126.899 33.1011C126.319 32.2811 125.989 31.3511 125.909 30.3111L129.839 30.1311C129.979 30.9711 130.329 31.6211 130.889 32.0811C131.449 32.5411 132.279 32.7711 133.379 32.7711C134.279 32.7711 134.979 32.6311 135.479 32.3511C135.999 32.0511 136.259 31.5911 136.259 30.9711C136.259 30.6111 136.169 30.3111 135.989 30.0711C135.809 29.8311 135.469 29.6211 134.969 29.4411C134.469 29.2611 133.729 29.0811 132.749 28.9011C131.109 28.6211 129.819 28.2811 128.879 27.8811C127.939 27.4611 127.269 26.9411 126.869 26.3211C126.489 25.7011 126.299 24.9311 126.299 24.0111C126.299 22.5111 126.869 21.3011 128.009 20.3811C129.169 19.4411 130.859 18.9711 133.079 18.9711C134.519 18.9711 135.729 19.2111 136.709 19.6911C137.689 20.1511 138.449 20.7911 138.989 21.6111C139.549 22.4111 139.899 23.3311 140.039 24.3711L136.169 24.5511C136.069 24.0111 135.889 23.5411 135.629 23.1411C135.369 22.7411 135.019 22.4411 134.579 22.2411C134.139 22.0211 133.619 21.9111 133.019 21.9111C132.119 21.9111 131.439 22.0911 130.979 22.4511C130.519 22.8111 130.289 23.2911 130.289 23.8911C130.289 24.3111 130.389 24.6611 130.589 24.9411C130.809 25.2211 131.159 25.4511 131.639 25.6311C132.119 25.7911 132.759 25.9411 133.559 26.0811C135.239 26.3411 136.559 26.6811 137.519 27.1011C138.499 27.5011 139.189 28.0211 139.589 28.6611C140.009 29.2811 140.219 30.0311 140.219 30.9111C140.219 31.9311 139.929 32.8011 139.349 33.5211C138.789 34.2411 137.989 34.7911 136.949 35.1711C135.929 35.5311 134.729 35.7111 133.349 35.7111ZM149.426 35.7111C147.826 35.7111 146.436 35.3711 145.256 34.6911C144.076 33.9911 143.156 33.0111 142.496 31.7511C141.856 30.4911 141.536 29.0211 141.536 27.3411C141.536 25.6611 141.856 24.2011 142.496 22.9611C143.156 21.7011 144.076 20.7211 145.256 20.0211C146.436 19.3211 147.826 18.9711 149.426 18.9711C150.786 18.9711 151.996 19.2111 153.056 19.6911C154.116 20.1711 154.976 20.8611 155.636 21.7611C156.316 22.6411 156.736 23.7211 156.896 25.0011L152.936 25.2111C152.776 24.1911 152.376 23.4211 151.736 22.9011C151.116 22.3611 150.346 22.0911 149.426 22.0911C148.186 22.0911 147.226 22.5611 146.546 23.5011C145.866 24.4211 145.526 25.7011 145.526 27.3411C145.526 29.0011 145.866 30.2911 146.546 31.2111C147.226 32.1311 148.186 32.5911 149.426 32.5911C150.366 32.5911 151.146 32.3211 151.766 31.7811C152.406 31.2411 152.796 30.4011 152.936 29.2611L156.896 29.4411C156.736 30.7211 156.326 31.8311 155.666 32.7711C155.006 33.7111 154.146 34.4411 153.086 34.9611C152.026 35.4611 150.806 35.7111 149.426 35.7111ZM165.785 35.7111C164.205 35.7111 162.815 35.3711 161.615 34.6911C160.435 33.9911 159.515 33.0111 158.855 31.7511C158.215 30.4911 157.895 29.0211 157.895 27.3411C157.895 25.6411 158.215 24.1711 158.855 22.9311C159.515 21.6711 160.435 20.7011 161.615 20.0211C162.815 19.3211 164.205 18.9711 165.785 18.9711C167.365 18.9711 168.745 19.3211 169.925 20.0211C171.105 20.7011 172.015 21.6711 172.655 22.9311C173.315 24.1711 173.645 25.6411 173.645 27.3411C173.645 29.0211 173.315 30.4911 172.655 31.7511C172.015 33.0111 171.105 33.9911 169.925 34.6911C168.745 35.3711 167.365 35.7111 165.785 35.7111ZM165.785 32.5911C167.025 32.5911 167.975 32.1311 168.635 31.2111C169.315 30.2911 169.655 29.0011 169.655 27.3411C169.655 25.7011 169.315 24.4211 168.635 23.5011C167.975 22.5611 167.025 22.0911 165.785 22.0911C164.545 22.0911 163.585 22.5611 162.905 23.5011C162.225 24.4211 161.885 25.7011 161.885 27.3411C161.885 29.0011 162.225 30.2911 162.905 31.2111C163.585 32.1311 164.545 32.5911 165.785 32.5911ZM175.858 39.8511V19.3311H179.548L179.638 22.7511L179.248 22.5711C179.648 21.3911 180.298 20.5011 181.198 19.9011C182.118 19.2811 183.188 18.9711 184.408 18.9711C185.928 18.9711 187.188 19.3511 188.189 20.1111C189.208 20.8711 189.968 21.8811 190.469 23.1411C190.968 24.4011 191.218 25.8011 191.218 27.3411C191.218 28.8811 190.959 30.2811 190.439 31.5411C189.939 32.8011 189.178 33.8111 188.158 34.5711C187.158 35.3311 185.898 35.7111 184.378 35.7111C183.578 35.7111 182.828 35.5711 182.128 35.2911C181.448 35.0111 180.858 34.6111 180.358 34.0911C179.878 33.5711 179.538 32.9611 179.338 32.2611L179.698 31.9611V39.8511H175.858ZM183.478 32.5911C184.638 32.5911 185.548 32.1311 186.208 31.2111C186.888 30.2711 187.229 28.9811 187.229 27.3411C187.229 25.7011 186.888 24.4211 186.208 23.5011C185.548 22.5611 184.638 22.0911 183.478 22.0911C182.698 22.0911 182.028 22.2911 181.468 22.6911C180.908 23.0711 180.468 23.6511 180.148 24.4311C179.848 25.2111 179.698 26.1811 179.698 27.3411C179.698 28.5011 179.848 29.4711 180.148 30.2511C180.448 31.0311 180.878 31.6211 181.438 32.0211C182.018 32.4011 182.698 32.5911 183.478 32.5911ZM200.378 35.7111C198.778 35.7111 197.388 35.3711 196.208 34.6911C195.028 33.9911 194.118 33.0111 193.478 31.7511C192.838 30.4911 192.518 29.0211 192.518 27.3411C192.518 25.6611 192.838 24.2011 193.478 22.9611C194.118 21.7011 195.018 20.7211 196.178 20.0211C197.358 19.3211 198.728 18.9711 200.288 18.9711C201.808 18.9711 203.138 19.3111 204.278 19.9911C205.438 20.6711 206.328 21.6511 206.948 22.9311C207.568 24.2111 207.878 25.7511 207.878 27.5511V28.4211H196.508C196.588 29.8211 196.968 30.8811 197.648 31.6011C198.348 32.3011 199.268 32.6511 200.408 32.6511C201.268 32.6511 201.978 32.4611 202.538 32.0811C203.118 31.6811 203.518 31.1311 203.738 30.4311L207.668 30.6711C207.228 32.2311 206.358 33.4611 205.058 34.3611C203.778 35.2611 202.218 35.7111 200.378 35.7111ZM196.508 25.8411H203.918C203.838 24.5411 203.468 23.5811 202.808 22.9611C202.148 22.3211 201.308 22.0011 200.288 22.0011C199.268 22.0011 198.418 22.3311 197.738 22.9911C197.078 23.6511 196.668 24.6011 196.508 25.8411Z" fill="#2E8B6A"/>
</g>
</svg>
